<svg width="17" height="16" viewBox="0 0 17 16" fill="none" xmlns="http://www.w3.org/2000/svg">
<path d="M11 0V4H0V0H11Z" fill="white"/>
<path d="M4.89474 2C5.44702 2 5.89474 1.55228 5.89474 1V1C5.89474 0.447715 6.34245 0 6.89474 0H12C13.1046 0 14 0.895431 14 2V11C14 12.1046 13.1046 13 12 13H2C0.89543 13 0 12.1046 0 11V4C0 2.89543 0.895431 2 2 2H4.89474Z" fill="#ADADAD"/>
<line x1="13.5" y1="9" x2="13.5" y2="16" stroke="#414141"/>
<line x1="10" y1="12.5" x2="17" y2="12.5" stroke="#414141"/>
</svg>
